<svg width="24" height="24" viewBox="0 0 24 24" fill="none" xmlns="http://www.w3.org/2000/svg">
<path d="M21.3731 16.68C20.8556 17.8294 20.6063 18.3431 19.9406 19.3575C19.0088 20.775 17.6944 22.545 16.0706 22.5562C14.625 22.5694 14.2519 21.6131 12.2888 21.63C10.3275 21.6394 9.91877 22.575 8.47127 22.56C6.84565 22.545 5.60252 20.9513 4.67064 19.5356C2.06439 15.5662 1.78877 10.9125 3.39939 8.4375C4.53939 6.6825 6.34127 5.65125 8.0344 5.65125C9.7594 5.65125 10.8431 6.59812 12.2681 6.59812C13.6519 6.59812 14.4938 5.64937 16.4888 5.64937C17.9963 5.64937 19.59 6.47062 20.73 7.88812C17.0025 9.93187 17.6081 15.255 21.3731 16.68ZM14.9738 4.065C15.6994 3.13312 16.2506 1.81875 16.05 0.48C14.8669 0.560625 13.4831 1.31625 12.675 2.295C11.9419 3.1875 11.3344 4.51125 11.5706 5.79187C12.8625 5.83312 14.1994 5.0625 14.9738 4.065Z" fill="black"/>
</svg>
